<?xml version="1.0" standalone="no"?>
<!DOCTYPE svg PUBLIC "-//W3C//DTD SVG 20010904//EN"
 "http://www.w3.org/TR/2001/REC-SVG-20010904/DTD/svg10.dtd">
<svg version="1.0" xmlns="http://www.w3.org/2000/svg"
 width="700.000000pt" height="700.000000pt" viewBox="0 0 700.000000 700.000000"
 preserveAspectRatio="xMidYMid meet">
<metadata>
Created by potrace 1.11, written by Peter Selinger 2001-2013
</metadata>
<g transform="translate(0.000000,700.000000) scale(0.100000,-0.100000)"
fill="#000000" stroke="none">
<path d="M5244 6693 c-135 -233 -154 -265 -154 -268 0 -4 -154 -271 -170 -295
-6 -8 -13 -21 -17 -29 -3 -8 -35 -64 -71 -125 -36 -61 -116 -199 -178 -307
-62 -108 -133 -231 -158 -274 -26 -42 -46 -79 -46 -81 0 -2 -11 -22 -24 -43
-13 -21 -82 -139 -153 -262 -149 -258 -368 -637 -473 -819 -40 -69 -84 -145
-98 -170 -14 -25 -44 -76 -67 -115 -66 -110 -110 -190 -107 -195 1 -2 780 -4
1731 -5 l1729 0 6 30 c6 39 1 479 -6 491 -3 5 -9 47 -13 94 -4 47 -9 88 -10
91 -2 3 -9 37 -15 75 -52 329 -192 720 -375 1049 -46 83 -170 275 -211 327
-16 20 -38 49 -49 64 -107 149 -378 424 -545 554 -25 19 -51 40 -58 47 -39 37
-386 263 -405 263 -3 0 -32 -44 -63 -97z"/>
<path d="M3089 6766 c-2 -2 -45 -7 -96 -10 -50 -4 -102 -9 -115 -11 -13 -2
-59 -9 -103 -15 -495 -70 -1027 -294 -1449 -610 -164 -123 -204 -158 -366
-320 -325 -325 -555 -673 -728 -1100 -67 -166 -142 -416 -165 -550 -3 -14 -12
-63 -20 -110 -32 -176 -41 -291 -42 -525 0 -310 9 -417 56 -665 13 -69 73
-300 94 -366 65 -197 212 -529 277 -624 13 -19 27 -43 31 -52 17 -45 236 -354
307 -432 19 -22 62 -69 94 -105 553 -611 1350 -998 2178 -1058 196 -14 545 -3
690 22 12 2 66 11 118 20 860 145 1653 662 2152 1405 271 402 460 888 523
1345 17 125 24 194 25 228 l0 37 -1890 0 c-1039 0 -1890 3 -1890 6 0 5 172
305 340 594 69 118 335 579 355 615 11 21 69 119 85 145 5 8 68 119 141 245
116 203 212 370 239 415 5 8 87 150 182 315 95 165 178 307 183 317 6 9 33 56
61 105 28 48 97 167 153 263 57 96 103 179 104 184 1 5 -29 22 -68 38 -261
110 -583 198 -840 228 -49 6 -106 13 -125 16 -42 7 -485 16 -491 10z"/>
</g>
</svg>
